<svg
          id="my-svg"
          width="371"
          height="448"
          viewBox="0 0 371 448"
          fill="none"
          xmlns="http://www.w3.org/2000/svg"
        >
          <path
            d="M232.143 159.894C232.143 59.8667 232.415 7.20792 232.931 7.20792C234.939 7.20792 250.252 12.5951 259.083 16.4081C320.124 42.7645 362.471 100.743 369.356 167.383C370.533 178.783 369.867 204.18 368.118 214.51C362.203 249.464 346.355 282.921 323.837 307.995L319.72 312.58H232.143V159.894ZM308.867 268.329C336.272 227.594 341.656 175.348 323.131 129.911C315.53 111.267 304.684 94.8582 290.764 80.945C283.3 73.4842 270.46 63.02 268.771 63.02C268.308 63.02 268.022 103.842 268.022 169.876V276.731L303.503 276.302L308.867 268.329Z"
            fill="#ceff1a"
          />
          <path
            d="M103.775 409.852H168.358V1.79872L176.287 1.23122C180.648 0.919099 188.721 0.923539 194.226 1.24111L204.237 1.81851V446.529H103.775V409.852Z"
            fill="#ceff1a"
          />
          <path
            d="M44.6806 304.806C0.689495 252.097 -10.9776 181.591 13.8031 118.21C27.0834 84.2432 51.4479 53.8401 82.2478 32.8016C97.4344 22.4281 117.431 13.0304 134.671 8.16489L140.452 6.53348V312.58H103.775V183.415H36.6289L37.1716 191.587C39.1199 220.923 47.4126 246.244 62.2952 268.299L66.3015 274.237V312.58H51.1686L44.6806 304.806ZM103.775 104.879C103.775 81.418 103.528 62.2227 103.227 62.2227C101.841 62.2227 87.5005 73.9471 81.1311 80.2879C68.5891 92.7736 59.3796 105.857 51.4745 122.42C47.8074 130.103 42.3821 144.641 42.3821 146.783C42.3821 147.242 54.3804 147.535 73.0787 147.535H103.775V104.879Z"
            fill="#ceff1a"
          />
          <path
            d="M103.775 340.486H140.452V377.162H103.775V340.486Z"
            fill="#ceff1a"
          />
          <path
            d="M232.143 340.486H268.022V377.162H232.143V340.486Z"
            fill="#ceff1a"
          />
          <path
            d="M232.143 159.894C232.143 59.8667 232.415 7.20792 232.931 7.20792C234.939 7.20792 250.252 12.5951 259.083 16.4081C320.124 42.7645 362.471 100.743 369.356 167.383C370.533 178.783 369.867 204.18 368.118 214.51C362.203 249.464 346.355 282.921 323.837 307.995L319.72 312.58H232.143V159.894ZM308.867 268.329C336.272 227.594 341.656 175.348 323.131 129.911C315.53 111.267 304.684 94.8582 290.764 80.945C283.3 73.4842 270.46 63.02 268.771 63.02C268.308 63.02 268.022 103.842 268.022 169.876V276.731L303.503 276.302L308.867 268.329Z"
            stroke="black"
          />
          <path
            d="M103.775 409.852H168.358V1.79872L176.287 1.23122C180.648 0.919099 188.721 0.923539 194.226 1.24111L204.237 1.81851V446.529H103.775V409.852Z"
            stroke="black"
          />
          <path
            d="M44.6806 304.806C0.689495 252.097 -10.9776 181.591 13.8031 118.21C27.0834 84.2432 51.4479 53.8401 82.2478 32.8016C97.4344 22.4281 117.431 13.0304 134.671 8.16489L140.452 6.53348V312.58H103.775V183.415H36.6289L37.1716 191.587C39.1199 220.923 47.4126 246.244 62.2952 268.299L66.3015 274.237V312.58H51.1686L44.6806 304.806ZM103.775 104.879C103.775 81.418 103.528 62.2227 103.227 62.2227C101.841 62.2227 87.5005 73.9471 81.1311 80.2879C68.5891 92.7736 59.3796 105.857 51.4745 122.42C47.8074 130.103 42.3821 144.641 42.3821 146.783C42.3821 147.242 54.3804 147.535 73.0787 147.535H103.775V104.879Z"
            stroke="black"
          />
          <path
            d="M103.775 340.486H140.452V377.162H103.775V340.486Z"
            stroke="black"
          />
          <path
            d="M232.143 340.486H268.022V377.162H232.143V340.486Z"
            stroke="black"
          />
        </svg>